HIERARCHY
ROOT hip
{
  OFFSET 0.0 0.0 0.0
  CHANNELS 6 Xposition Yposition Zposition Zrotation Yrotation Xrotation
  JOINT torso
  {
    OFFSET 0.0 0.0 0.0
    CHANNELS 3 Zrotation Xrotation Yrotation
    JOINT neck
    {
      OFFSET -8.600829999999974 327.7417449999999 60.895874000000276
      CHANNELS 3 Zrotation Xrotation Yrotation
      JOINT head
      {
        OFFSET 0.7211610000001087 266.848846 239.12060599999995
        CHANNELS 3 Zrotation Xrotation Yrotation
        End Site
        {
          OFFSET 0.0 0.0 0.0
        }
      }
    }
    JOINT left_collar
    {
      OFFSET -8.600829999999974 327.7417449999999 60.895874000000276
      CHANNELS 3 Zrotation Xrotation Yrotation
      JOINT left_upper_arm
      {
        OFFSET -122.29599000000002 -5.21875 31.800903999999946
        CHANNELS 3 Zrotation Xrotation Yrotation
        JOINT left_forearm
        {
          OFFSET -195.94708199999997 63.423126000000025 226.99352999999996
          CHANNELS 3 Zrotation Xrotation Yrotation
          JOINT left_hand
          {
            OFFSET -232.19226099999992 28.282164999999964 80.86950699999989
            CHANNELS 3 Zrotation Xrotation Yrotation
            End Site
            {
              OFFSET 0.0 0.0 0.0
            }
          }
        }
      }
    }
    JOINT right_collar
    {
      OFFSET -8.600829999999974 327.7417449999999 60.895874000000276
      CHANNELS 3 Zrotation Xrotation Yrotation
      JOINT right_upper_arm
      {
        OFFSET 168.41261300000002 -11.913361000000066 -9.389160000000174
        CHANNELS 3 Zrotation Xrotation Yrotation
        JOINT right_forearm
        {
          OFFSET 213.49279800000005 104.82293699999997 83.52258300000017
          CHANNELS 3 Zrotation Xrotation Yrotation
          JOINT right_hand
          {
            OFFSET 222.067185 62.005675999999994 -110.52026300000034
            CHANNELS 3 Zrotation Xrotation Yrotation
            End Site
            {
              OFFSET 0.0 0.0 0.0
            }
          }
        }
      }
    }
  }
}
MOTION
Frames: 13
Frame Time: 0.01
-409.3189186174193 117.40778350436085 1519.334214645503 1.420717990785876 -20.097481254511738 -15.635851157233043 -1.2734145914800263 8.414195010584704 0.36908426128888266 -4.96336811688436 5.994622564224729 4.378044048014945 0.0 0.0 0.0 -0.2858290567428058 -0.14671121459472225 1.816899410044617 58.30375238095305 43.23008210809901 28.866145566586376 37.40027496130577 13.445825801252456 -2.1556355664686375 0.0 0.0 0.0 -5.774519330613579 -0.2833072336511857 0.32899057090376604 -72.43137872016328 18.870489153182252 -22.366158835318785 -37.28028267806943 -18.007588666400608 -4.597179617652596 0.0 0.0 0.0
-409.345834921656 117.30499997663468 1517.661880794669 1.4411552313711997 -20.117758048801207 -15.64951719885563 -1.2767571087372869 8.407305114348947 0.3693540586649584 -4.968967823231544 6.010203903454925 4.382811340874945 0.0 0.0 0.0 -0.29284020178242703 -0.14853313754122124 1.8198664260625292 58.31109081391133 43.24934555936602 28.831621685126514 37.316845144239664 13.39655846685998 -2.0821181876904733 0.0 0.0 0.0 -5.787578888969695 -0.2867399299339629 0.306538275764681 -72.46289111828472 18.884203096972758 -22.319625565439217 -37.228011163320886 -17.984096381367184 -4.618171050834542 0.0 0.0 0.0
-409.37300448265825 117.19871068460408 1515.9733591566503 1.4619806980963301 -20.13764862575325 -15.663498872180002 -1.2797248261660852 8.399508894635835 0.3695671278989928 -4.975177982526585 6.025918638807549 4.38811733741512 0.0 0.0 0.0 -0.2997076084666452 -0.15035794289247317 1.823799382249444 58.31746549988635 43.2685849629326 28.795850332288378 37.234010008836194 13.348107365731098 -2.0104783062279803 0.0 0.0 0.0 -5.800273907818474 -0.29008205812295834 0.28471118006289725 -72.49381852110292 18.897849795519665 -22.27320715846697 -37.17792619072302 -17.96143910751041 -4.637264279745171 0.0 0.0 0.0
-409.4011023019932 117.08451911067779 1514.2560574149877 1.4834510067273892 -20.157054864025604 -15.678468087100567 -1.2822314587906383 8.3907573060087 0.3697128547494668 -4.982356870452082 6.041671243607637 4.394280515643163 0.0 0.0 0.0 -0.30634238873963043 -0.1521766121079969 1.8290210819719412 58.322465354170625 43.287460197294905 28.759053484707586 37.15244197611907 13.301012111915991 -1.9419336989506484 0.0 0.0 0.0 -5.812354618994641 -0.29323345780306626 0.2642158812262994 -72.52389683881559 18.911249895096848 -22.227585028966153 -37.13071062571126 -17.93992633848471 -4.6541662240947 0.0 0.0 0.0
-409.4308947158971 116.95755077932519 1512.495914905978 1.505834737885822 -20.175895580713455 -15.695141510097503 -1.2841996459760527 8.381037106606344 0.36978216961763005 -4.9908642042677815 6.057351512400362 4.40162077879853 0.0 0.0 0.0 -0.312656532917646 -0.15397991313009815 1.8358447689786008 58.325673204497924 43.30561384724909 28.721483086014302 37.07283075919772 13.255804878759868 -1.877670549134937 0.0 0.0 0.0 -5.823596866624006 -0.2960961353005314 0.24574882512879598 -72.55285380231611 18.92422660913412 -22.18341902947276 -37.08698210930765 -17.919839645989846 -4.668616057779604 0.0 0.0 0.0
-409.46323545451565 116.81256427631634 1510.6778214338594 1.5294018975590902 -20.194108519711147 -15.71426051835179 -1.2855634472604942 8.370377529687774 0.3697679309046454 -5.001048375640284 6.072834316242986 4.410448154759911 0.0 0.0 0.0 -0.31856509151766726 -0.15575845275681657 1.8445614519290179 58.32667750976562 43.32267743215981 28.68342265444344 36.99587486887764 13.213000096659064 -1.8188113208856924 0.0 0.0 0.0 -5.833811285778899 -0.29857749567163944 0.22997482782483805 -72.5804101556011 18.936609659643153 -22.141330377752173 -37.047272590267355 -17.901423335959887 -4.680395541976266 0.0 0.0 0.0
-409.4990628210042 116.64408259252433 1508.7860508632625 1.5544130422994198 -20.211651901263938 -15.736570073161635 -1.2862704255679331 8.358855928092654 0.3696652497727522 -5.013233760058854 6.087980134734294 4.421051558023858 0.0 0.0 0.0 -0.32398846181743846 -0.15750277173832264 1.8554274941723496 58.325085254090816 43.33827830617171 28.645189065357457 36.922271249288364 13.173084006450688 -1.7663833931755253 0.0 0.0 0.0 -5.842850869891056 -0.30059334282875555 0.21750706378346946 -72.60628198886886 18.94823870684835 -22.101887827394545 -37.01200944161401 -17.88487597008902 -4.689340151694398 0.0 0.0 0.0
-409.53939850582634 116.44654254669649 1506.804692241373 1.5811084071720791 -20.228505431640244 -15.76279706209832 -1.286283203992359 8.346602012486668 0.3694717388582397 -5.0277085188201385 6.102636471866703 4.433687981164959 0.0 0.0 0.0 -0.3288546735600413 -0.1592034749311564 1.86865299791691 58.32053561195525 43.3520471719971 28.607134107054943 36.852703012832244 13.136504204491947 -1.7212892709789869 0.0 0.0 0.0 -5.850616529073217 -0.302070517355982 0.20888924611463175 -72.63018432655144 18.95896610218247 -22.065597858517258 -36.9814989403278 -17.870343132314716 -4.695350621867714 0.0 0.0 0.0
-409.5853484964513 116.21445930845164 1504.7180619670257 1.6096973707433122 -20.244670686913015 -15.79362861743079 -1.2855804081282152 8.333800339539394 0.36918767035435374 -5.044713272193303 6.1166402280105405 4.4485724495578625 0.0 0.0 0.0 -0.33310157102802346 -0.16085138586193864 1.8843914382841955 58.31271389636095 43.3636261085655 28.569645382741957 36.78782536634041 13.103659324249245 -1.684279150160601 0.0 0.0 0.0 -5.857060369694077 -0.3029490695456406 0.20458054074986684 -72.6518359477099 18.968658848271886 -22.032899353190814 -36.95591286650326 -17.857911792306087 -4.69840438959615 0.0 0.0 0.0
-409.63810646782684 115.94260232581048 1502.5110820300288 1.6403485816107786 -20.260170806406368 -15.829690860552512 -1.2841569391346972 8.320690763177502 0.3688160327076696 -5.064430972604158 6.129821058257411 4.4658690290940655 0.0 0.0 0.0 -0.3366788111600055 -0.1624377156745806 1.9027308892039854 58.30136527035781 43.3726769609407 28.533146199214496 36.728249973199404 13.074889027593368 -1.655926594073032 0.0 0.0 0.0 -5.862186580029202 -0.3031839018269904 0.20494354031451625 -72.67096525450441 18.9771997132445 -22.00416282924833 -36.93527889245636 -17.847606558985483 -4.698566297947097 0.0 0.0 0.0
-409.6989599351222 115.62617831202867 1500.169611658151 1.6731810459055918 -20.27504944687671 -15.87152845014855 -1.2820235544851057 8.30756662979845 0.3683624788747045 -5.086978246616724 6.142005698817965 4.485683123574044 0.0 0.0 0.0 -0.33954961542383205 -0.1639542366209036 1.9236870739406102 58.28630768662083 43.378889896487635 28.49809415224865 36.6745281709424 13.050464523169024 -1.6366080708140711 0.0 0.0 0.0 -5.866049969935934 -0.3027458558476563 0.21023539765346602 -72.68731683441983 18.984487516116875 -21.97969389075745 -36.91947530904437 -17.839388038907504 -4.695997852616357 0.0 0.0 0.0
-409.7692993087106 115.26101641603864 1497.6807228532318 1.7082564300651473 -20.289368956149204 -15.919585234165996 -1.2792057588440846 8.294770575961468 0.3678351622402056 -5.112398408758396 6.153023186496931 4.508055240566851 0.0 0.0 0.0 -0.3416922088680256 -0.16539344684189464 1.9471983984189054 58.267443482935164 43.381991902055596 28.464978121677767 36.627133651351066 13.030579883132942 -1.6264870787797157 0.0 0.0 0.0 -5.868752361696146 -0.3016222591626592 0.22060201410596908 -72.70065820860803 18.99043666311482 -21.959740183144426 -36.90823050910222 -17.83315343205872 -4.6909642716901665 0.0 0.0 0.0
-409.8506298147437 114.84375032087374 1495.032914122004 1.7455727707520543 -20.30320772873451 -15.974186240843265 -1.2757420272834779 8.282687876224324 0.36724445914182857 -5.140656287481029 6.16271083009597 4.532956349546606 0.0 0.0 0.0 -0.3431008560321417 -0.16674870718079277 1.973123093575391 58.244769005951106 43.381754979954174 28.43431333653612 36.58644539832495 13.015344486777714 -1.6255035357992154 0.0 0.0 0.0 -5.87043714466028 -0.2998169783072769 0.23607502853818887 -72.71078615241251 18.994976061387728 -21.94450087842117 -36.90112752684063 -17.828739417379126 -4.683838538899962 0.0 0.0 0.0
